<svg width="23" height="19" viewBox="0 0 23 19" fill="none" xmlns="http://www.w3.org/2000/svg">
<mask id="path-1-outside-1" maskUnits="userSpaceOnUse" x="0" y="0" width="23" height="19" fill="black">
<rect fill="white" width="23" height="19"/>
<path d="M21.9716 12.7094C22.0019 12.6302 22.0019 12.544 21.9716 12.4648L20.2589 7.49868V2.92686C20.2475 2.40704 20.0115 1.91254 19.6026 1.5515C19.1938 1.19046 18.6453 0.992293 18.0772 1.00032H4.98706C4.70555 0.995688 4.42581 1.04185 4.16381 1.13617C3.90181 1.23049 3.66267 1.37112 3.46008 1.55002C3.25748 1.72893 3.09538 1.9426 2.98305 2.17884C2.87071 2.41508 2.81033 2.66926 2.80536 2.92686V7.49868L1.03818 12.4897C1.00783 12.5689 1.00783 12.6551 1.03818 12.7343C1.01404 12.8174 1.00122 12.9029 1 12.9889V17.6156C1.00141 17.6674 1.01397 17.7184 1.03694 17.7657C1.05991 17.8131 1.09286 17.8558 1.13388 17.8915C1.17491 17.9272 1.22322 17.9551 1.27606 17.9737C1.32889 17.9923 1.38521 18.0012 1.4418 17.9999H3.21988C3.33323 18.0012 3.4426 17.9617 3.52428 17.8897C3.60595 17.8178 3.65336 17.7193 3.65622 17.6156V16.4327H19.3808V17.5906C19.3837 17.6943 19.4311 17.7928 19.5127 17.8647C19.5944 17.9367 19.7038 17.9763 19.8171 17.9749H21.5625C21.6758 17.9763 21.7852 17.9367 21.8669 17.8647C21.9486 17.7928 21.996 17.6943 21.9988 17.5906V12.9889C22.0035 12.895 21.9943 12.801 21.9716 12.7094ZM3.66167 2.94183C3.66884 2.62985 3.81044 2.33309 4.05562 2.11621C4.3008 1.89933 4.62971 1.77988 4.9707 1.7839H18.0609C18.4019 1.77988 18.7308 1.89933 18.9759 2.11621C19.2211 2.33309 19.3627 2.62985 19.3699 2.94183V7.17924H18.1809L17.7773 5.74681C17.7011 5.49161 17.5344 5.26683 17.3033 5.10782C17.0723 4.9488 16.79 4.86456 16.501 4.86838H13.692C13.523 4.86573 13.355 4.89359 13.1977 4.95035C13.0405 5.00712 12.8969 5.09168 12.7754 5.19921C12.6538 5.30673 12.5566 5.43512 12.4893 5.57704C12.422 5.71895 12.3858 5.87162 12.383 6.02631V7.17924H10.6322V6.02631C10.625 5.71432 10.4834 5.41758 10.2382 5.2007C9.99306 4.98382 9.66416 4.86436 9.32318 4.86838H6.50879C6.22087 4.86652 5.94033 4.9516 5.71058 5.11041C5.48084 5.26921 5.31472 5.49288 5.23795 5.74681L4.83434 7.17924H3.64531L3.66167 2.94183ZM17.2973 7.80313C17.2547 7.85006 17.2014 7.88783 17.141 7.91371C17.0807 7.93959 17.0148 7.95294 16.9482 7.95285H13.6757C13.5623 7.9542 13.4529 7.91464 13.3713 7.8427C13.2896 7.77076 13.2422 7.67226 13.2393 7.56856V6.02631C13.24 5.97475 13.2519 5.92384 13.2743 5.87652C13.2967 5.82921 13.3291 5.78643 13.3697 5.75068C13.4103 5.71493 13.4582 5.6869 13.5108 5.66825C13.5633 5.64959 13.6193 5.64069 13.6757 5.64202H16.4901C16.5854 5.64022 16.6786 5.66778 16.7548 5.72028C16.8309 5.77277 16.8856 5.84714 16.91 5.93148L17.4009 7.49868C17.4099 7.55291 17.4058 7.60828 17.3888 7.66089C17.3719 7.71351 17.3425 7.76206 17.3027 7.80313H17.2973ZM9.76497 6.02631V7.56356C9.76211 7.66727 9.7147 7.76576 9.63303 7.8377C9.55135 7.90964 9.44198 7.94923 9.32863 7.94789H6.05608C5.99036 7.94725 5.92559 7.9335 5.86625 7.90765C5.80691 7.88179 5.75444 7.84442 5.71247 7.79813C5.67251 7.7525 5.64479 7.69894 5.63153 7.64173C5.61827 7.58453 5.61983 7.52528 5.63611 7.46873L6.07245 5.92648C6.09879 5.84218 6.15472 5.76818 6.23161 5.71586C6.3085 5.66354 6.40207 5.63583 6.49788 5.63702H9.30681C9.36537 5.63289 9.42423 5.63988 9.47968 5.65758C9.53514 5.67529 9.58598 5.70332 9.62902 5.73989C9.67206 5.77647 9.70636 5.82077 9.72976 5.87006C9.75315 5.91936 9.76514 5.97256 9.76497 6.02631ZM3.53623 7.95285H4.85615C4.90093 8.07044 4.96734 8.18017 5.05251 8.27728C5.1769 8.41736 5.33415 8.53003 5.5126 8.60693C5.69105 8.68382 5.88612 8.72297 6.08336 8.7215H9.3559C9.62169 8.72315 9.88169 8.65042 10.101 8.51304C10.3204 8.37566 10.4886 8.18018 10.5831 7.95285H12.4921C12.5869 8.18098 12.756 8.37702 12.9764 8.51447C13.1968 8.65192 13.458 8.72417 13.7247 8.7215H16.9973C17.1954 8.72336 17.3914 8.6844 17.5708 8.6075C17.7502 8.53061 17.9084 8.41774 18.0336 8.27728C18.1168 8.17895 18.183 8.06953 18.23 7.95285H19.5444L20.8916 11.8209C20.8408 11.8182 20.7898 11.8182 20.7389 11.8209H2.35266C2.30179 11.8182 2.2508 11.8182 2.19994 11.8209L3.53623 7.95285ZM1.89995 17.2013V16.4327H2.77263V17.2013H1.89995ZM21.1152 17.2013H20.2426V16.4327H21.1152V17.2013ZM21.1152 15.6591H1.91632V12.9889C1.91702 12.9373 1.92891 12.8864 1.95129 12.8391C1.97367 12.7917 2.0061 12.749 2.04669 12.7132C2.08728 12.6775 2.13523 12.6494 2.18776 12.6308C2.24028 12.6121 2.29633 12.6032 2.35266 12.6045H20.6735C20.7298 12.6032 20.7858 12.6121 20.8383 12.6308C20.8909 12.6494 20.9388 12.6775 20.9794 12.7132C21.02 12.749 21.0524 12.7917 21.0748 12.8391C21.0972 12.8864 21.1091 12.9373 21.1098 12.9889L21.1152 15.6591Z"/>
</mask>
<path d="M21.9716 12.7094C22.0019 12.6302 22.0019 12.544 21.9716 12.4648L20.2589 7.49868V2.92686C20.2475 2.40704 20.0115 1.91254 19.6026 1.5515C19.1938 1.19046 18.6453 0.992293 18.0772 1.00032H4.98706C4.70555 0.995688 4.42581 1.04185 4.16381 1.13617C3.90181 1.23049 3.66267 1.37112 3.46008 1.55002C3.25748 1.72893 3.09538 1.9426 2.98305 2.17884C2.87071 2.41508 2.81033 2.66926 2.80536 2.92686V7.49868L1.03818 12.4897C1.00783 12.5689 1.00783 12.6551 1.03818 12.7343C1.01404 12.8174 1.00122 12.9029 1 12.9889V17.6156C1.00141 17.6674 1.01397 17.7184 1.03694 17.7657C1.05991 17.8131 1.09286 17.8558 1.13388 17.8915C1.17491 17.9272 1.22322 17.9551 1.27606 17.9737C1.32889 17.9923 1.38521 18.0012 1.4418 17.9999H3.21988C3.33323 18.0012 3.4426 17.9617 3.52428 17.8897C3.60595 17.8178 3.65336 17.7193 3.65622 17.6156V16.4327H19.3808V17.5906C19.3837 17.6943 19.4311 17.7928 19.5127 17.8647C19.5944 17.9367 19.7038 17.9763 19.8171 17.9749H21.5625C21.6758 17.9763 21.7852 17.9367 21.8669 17.8647C21.9486 17.7928 21.996 17.6943 21.9988 17.5906V12.9889C22.0035 12.895 21.9943 12.801 21.9716 12.7094ZM3.66167 2.94183C3.66884 2.62985 3.81044 2.33309 4.05562 2.11621C4.3008 1.89933 4.62971 1.77988 4.9707 1.7839H18.0609C18.4019 1.77988 18.7308 1.89933 18.9759 2.11621C19.2211 2.33309 19.3627 2.62985 19.3699 2.94183V7.17924H18.1809L17.7773 5.74681C17.7011 5.49161 17.5344 5.26683 17.3033 5.10782C17.0723 4.9488 16.79 4.86456 16.501 4.86838H13.692C13.523 4.86573 13.355 4.89359 13.1977 4.95035C13.0405 5.00712 12.8969 5.09168 12.7754 5.19921C12.6538 5.30673 12.5566 5.43512 12.4893 5.57704C12.422 5.71895 12.3858 5.87162 12.383 6.02631V7.17924H10.6322V6.02631C10.625 5.71432 10.4834 5.41758 10.2382 5.2007C9.99306 4.98382 9.66416 4.86436 9.32318 4.86838H6.50879C6.22087 4.86652 5.94033 4.9516 5.71058 5.11041C5.48084 5.26921 5.31472 5.49288 5.23795 5.74681L4.83434 7.17924H3.64531L3.66167 2.94183ZM17.2973 7.80313C17.2547 7.85006 17.2014 7.88783 17.141 7.91371C17.0807 7.93959 17.0148 7.95294 16.9482 7.95285H13.6757C13.5623 7.9542 13.4529 7.91464 13.3713 7.8427C13.2896 7.77076 13.2422 7.67226 13.2393 7.56856V6.02631C13.24 5.97475 13.2519 5.92384 13.2743 5.87652C13.2967 5.82921 13.3291 5.78643 13.3697 5.75068C13.4103 5.71493 13.4582 5.6869 13.5108 5.66825C13.5633 5.64959 13.6193 5.64069 13.6757 5.64202H16.4901C16.5854 5.64022 16.6786 5.66778 16.7548 5.72028C16.8309 5.77277 16.8856 5.84714 16.91 5.93148L17.4009 7.49868C17.4099 7.55291 17.4058 7.60828 17.3888 7.66089C17.3719 7.71351 17.3425 7.76206 17.3027 7.80313H17.2973ZM9.76497 6.02631V7.56356C9.76211 7.66727 9.7147 7.76576 9.63303 7.8377C9.55135 7.90964 9.44198 7.94923 9.32863 7.94789H6.05608C5.99036 7.94725 5.92559 7.9335 5.86625 7.90765C5.80691 7.88179 5.75444 7.84442 5.71247 7.79813C5.67251 7.7525 5.64479 7.69894 5.63153 7.64173C5.61827 7.58453 5.61983 7.52528 5.63611 7.46873L6.07245 5.92648C6.09879 5.84218 6.15472 5.76818 6.23161 5.71586C6.3085 5.66354 6.40207 5.63583 6.49788 5.63702H9.30681C9.36537 5.63289 9.42423 5.63988 9.47968 5.65758C9.53514 5.67529 9.58598 5.70332 9.62902 5.73989C9.67206 5.77647 9.70636 5.82077 9.72976 5.87006C9.75315 5.91936 9.76514 5.97256 9.76497 6.02631ZM3.53623 7.95285H4.85615C4.90093 8.07044 4.96734 8.18017 5.05251 8.27728C5.1769 8.41736 5.33415 8.53003 5.5126 8.60693C5.69105 8.68382 5.88612 8.72297 6.08336 8.7215H9.3559C9.62169 8.72315 9.88169 8.65042 10.101 8.51304C10.3204 8.37566 10.4886 8.18018 10.5831 7.95285H12.4921C12.5869 8.18098 12.756 8.37702 12.9764 8.51447C13.1968 8.65192 13.458 8.72417 13.7247 8.7215H16.9973C17.1954 8.72336 17.3914 8.6844 17.5708 8.6075C17.7502 8.53061 17.9084 8.41774 18.0336 8.27728C18.1168 8.17895 18.183 8.06953 18.23 7.95285H19.5444L20.8916 11.8209C20.8408 11.8182 20.7898 11.8182 20.7389 11.8209H2.35266C2.30179 11.8182 2.2508 11.8182 2.19994 11.8209L3.53623 7.95285ZM1.89995 17.2013V16.4327H2.77263V17.2013H1.89995ZM21.1152 17.2013H20.2426V16.4327H21.1152V17.2013ZM21.1152 15.6591H1.91632V12.9889C1.91702 12.9373 1.92891 12.8864 1.95129 12.8391C1.97367 12.7917 2.0061 12.749 2.04669 12.7132C2.08728 12.6775 2.13523 12.6494 2.18776 12.6308C2.24028 12.6121 2.29633 12.6032 2.35266 12.6045H20.6735C20.7298 12.6032 20.7858 12.6121 20.8383 12.6308C20.8909 12.6494 20.9388 12.6775 20.9794 12.7132C21.02 12.749 21.0524 12.7917 21.0748 12.8391C21.0972 12.8864 21.1091 12.9373 21.1098 12.9889L21.1152 15.6591Z" fill="#787878"/>
<path d="M21.9716 12.7094C22.0019 12.6302 22.0019 12.544 21.9716 12.4648L20.2589 7.49868V2.92686C20.2475 2.40704 20.0115 1.91254 19.6026 1.5515C19.1938 1.19046 18.6453 0.992293 18.0772 1.00032H4.98706C4.70555 0.995688 4.42581 1.04185 4.16381 1.13617C3.90181 1.23049 3.66267 1.37112 3.46008 1.55002C3.25748 1.72893 3.09538 1.9426 2.98305 2.17884C2.87071 2.41508 2.81033 2.66926 2.80536 2.92686V7.49868L1.03818 12.4897C1.00783 12.5689 1.00783 12.6551 1.03818 12.7343C1.01404 12.8174 1.00122 12.9029 1 12.9889V17.6156C1.00141 17.6674 1.01397 17.7184 1.03694 17.7657C1.05991 17.8131 1.09286 17.8558 1.13388 17.8915C1.17491 17.9272 1.22322 17.9551 1.27606 17.9737C1.32889 17.9923 1.38521 18.0012 1.4418 17.9999H3.21988C3.33323 18.0012 3.4426 17.9617 3.52428 17.8897C3.60595 17.8178 3.65336 17.7193 3.65622 17.6156V16.4327H19.3808V17.5906C19.3837 17.6943 19.4311 17.7928 19.5127 17.8647C19.5944 17.9367 19.7038 17.9763 19.8171 17.9749H21.5625C21.6758 17.9763 21.7852 17.9367 21.8669 17.8647C21.9486 17.7928 21.996 17.6943 21.9988 17.5906V12.9889C22.0035 12.895 21.9943 12.801 21.9716 12.7094ZM3.66167 2.94183C3.66884 2.62985 3.81044 2.33309 4.05562 2.11621C4.3008 1.89933 4.62971 1.77988 4.9707 1.7839H18.0609C18.4019 1.77988 18.7308 1.89933 18.9759 2.11621C19.2211 2.33309 19.3627 2.62985 19.3699 2.94183V7.17924H18.1809L17.7773 5.74681C17.7011 5.49161 17.5344 5.26683 17.3033 5.10782C17.0723 4.9488 16.79 4.86456 16.501 4.86838H13.692C13.523 4.86573 13.355 4.89359 13.1977 4.95035C13.0405 5.00712 12.8969 5.09168 12.7754 5.19921C12.6538 5.30673 12.5566 5.43512 12.4893 5.57704C12.422 5.71895 12.3858 5.87162 12.383 6.02631V7.17924H10.6322V6.02631C10.625 5.71432 10.4834 5.41758 10.2382 5.2007C9.99306 4.98382 9.66416 4.86436 9.32318 4.86838H6.50879C6.22087 4.86652 5.94033 4.9516 5.71058 5.11041C5.48084 5.26921 5.31472 5.49288 5.23795 5.74681L4.83434 7.17924H3.64531L3.66167 2.94183ZM17.2973 7.80313C17.2547 7.85006 17.2014 7.88783 17.141 7.91371C17.0807 7.93959 17.0148 7.95294 16.9482 7.95285H13.6757C13.5623 7.9542 13.4529 7.91464 13.3713 7.8427C13.2896 7.77076 13.2422 7.67226 13.2393 7.56856V6.02631C13.24 5.97475 13.2519 5.92384 13.2743 5.87652C13.2967 5.82921 13.3291 5.78643 13.3697 5.75068C13.4103 5.71493 13.4582 5.6869 13.5108 5.66825C13.5633 5.64959 13.6193 5.64069 13.6757 5.64202H16.4901C16.5854 5.64022 16.6786 5.66778 16.7548 5.72028C16.8309 5.77277 16.8856 5.84714 16.91 5.93148L17.4009 7.49868C17.4099 7.55291 17.4058 7.60828 17.3888 7.66089C17.3719 7.71351 17.3425 7.76206 17.3027 7.80313H17.2973ZM9.76497 6.02631V7.56356C9.76211 7.66727 9.7147 7.76576 9.63303 7.8377C9.55135 7.90964 9.44198 7.94923 9.32863 7.94789H6.05608C5.99036 7.94725 5.92559 7.9335 5.86625 7.90765C5.80691 7.88179 5.75444 7.84442 5.71247 7.79813C5.67251 7.7525 5.64479 7.69894 5.63153 7.64173C5.61827 7.58453 5.61983 7.52528 5.63611 7.46873L6.07245 5.92648C6.09879 5.84218 6.15472 5.76818 6.23161 5.71586C6.3085 5.66354 6.40207 5.63583 6.49788 5.63702H9.30681C9.36537 5.63289 9.42423 5.63988 9.47968 5.65758C9.53514 5.67529 9.58598 5.70332 9.62902 5.73989C9.67206 5.77647 9.70636 5.82077 9.72976 5.87006C9.75315 5.91936 9.76514 5.97256 9.76497 6.02631ZM3.53623 7.95285H4.85615C4.90093 8.07044 4.96734 8.18017 5.05251 8.27728C5.1769 8.41736 5.33415 8.53003 5.5126 8.60693C5.69105 8.68382 5.88612 8.72297 6.08336 8.7215H9.3559C9.62169 8.72315 9.88169 8.65042 10.101 8.51304C10.3204 8.37566 10.4886 8.18018 10.5831 7.95285H12.4921C12.5869 8.18098 12.756 8.37702 12.9764 8.51447C13.1968 8.65192 13.458 8.72417 13.7247 8.7215H16.9973C17.1954 8.72336 17.3914 8.6844 17.5708 8.6075C17.7502 8.53061 17.9084 8.41774 18.0336 8.27728C18.1168 8.17895 18.183 8.06953 18.23 7.95285H19.5444L20.8916 11.8209C20.8408 11.8182 20.7898 11.8182 20.7389 11.8209H2.35266C2.30179 11.8182 2.2508 11.8182 2.19994 11.8209L3.53623 7.95285ZM1.89995 17.2013V16.4327H2.77263V17.2013H1.89995ZM21.1152 17.2013H20.2426V16.4327H21.1152V17.2013ZM21.1152 15.6591H1.91632V12.9889C1.91702 12.9373 1.92891 12.8864 1.95129 12.8391C1.97367 12.7917 2.0061 12.749 2.04669 12.7132C2.08728 12.6775 2.13523 12.6494 2.18776 12.6308C2.24028 12.6121 2.29633 12.6032 2.35266 12.6045H20.6735C20.7298 12.6032 20.7858 12.6121 20.8383 12.6308C20.8909 12.6494 20.9388 12.6775 20.9794 12.7132C21.02 12.749 21.0524 12.7917 21.0748 12.8391C21.0972 12.8864 21.1091 12.9373 21.1098 12.9889L21.1152 15.6591Z" stroke="#787878" mask="url(#path-1-outside-1)"/>
</svg>
